<svg width="20.000000" height="20.000000" viewBox="0 0 20 20" fill="none" xmlns="http://www.w3.org/2000/svg" xmlns:xlink="http://www.w3.org/1999/xlink">
	<desc>
			Created with Pixso.
	</desc>
	<defs>
		<clipPath id="clip28_1067">
			<rect id="search" width="20.000000" height="20.000000" fill="white" fill-opacity="0"/>
		</clipPath>
	</defs>
	<g clip-path="url(#clip28_1067)">
		<path id="Icon" d="M8.83331 15.4167Q7.49445 15.4167 6.27057 14.899Q5.08899 14.3993 4.17822 13.4885Q3.26746 12.5777 2.7677 11.3961Q2.25 10.1722 2.25 8.83334Q2.25 7.49445 2.7677 6.27057Q3.26746 5.08902 4.17822 4.17822Q5.08899 3.26743 6.27057 2.76767Q7.49445 2.25 8.83331 2.25Q10.1722 2.25 11.3961 2.76767Q12.5776 3.26743 13.4885 4.17822Q14.3992 5.08902 14.899 6.27057Q15.4167 7.49445 15.4167 8.83334Q15.4167 10.1722 14.899 11.3961Q14.3992 12.5777 13.4885 13.4885Q12.5776 14.3993 11.3961 14.899Q10.1722 15.4167 8.83331 15.4167ZM8.83331 13.9167Q9.86804 13.9167 10.8118 13.5175Q11.7239 13.1317 12.4278 12.4278Q13.1317 11.7239 13.5175 10.8118Q13.9167 9.86804 13.9167 8.83334Q13.9167 7.79865 13.5175 6.85489Q13.1317 5.94281 12.4278 5.23886Q11.7239 4.53494 10.8118 4.14917Q9.86804 3.75 8.83331 3.75Q7.79865 3.75 6.85492 4.14917Q5.94275 4.53494 5.23889 5.23886Q4.53491 5.94278 4.14917 6.85489Q3.75 7.79865 3.75 8.83334Q3.75 9.86804 4.14917 10.8118Q4.53491 11.7239 5.23889 12.4278Q5.94275 13.1317 6.85492 13.5175Q7.79865 13.9167 8.83331 13.9167ZM13.5303 12.4697L17.697 16.6364L16.6364 17.697L12.4697 13.5303L13.5303 12.4697ZM17.6687 16.6364L17.697 16.6364C17.994 16.9333 17.994 17.4 17.697 17.697C17.4 17.994 16.9333 17.994 16.6364 17.697L16.6364 17.6687L17.6687 16.6364Z" fill="#807D7E" fill-opacity="1.000000" fill-rule="evenodd"/>
	</g>
</svg>
